<mxfile host="app.diagrams.net" modified="2021-03-19T13:22:33.833Z" agent="5.0 (Macintosh; Intel Mac OS X 11_0_1) AppleWebKit/537.36 (KHTML, like Gecko) Chrome/87.0.4280.88 Safari/537.36" etag="Xo-5aiuShRhmgVNkCGnj" version="14.4.9" type="github">
  <diagram id="C5RBs43oDa-KdzZeNtuy" name="Page-1">
    <mxGraphModel dx="786" dy="572" grid="1" gridSize="10" guides="1" tooltips="1" connect="1" arrows="1" fold="1" page="1" pageScale="1" pageWidth="827" pageHeight="1169" math="0" shadow="0">
      <root>
        <mxCell id="WIyWlLk6GJQsqaUBKTNV-0" />
        <mxCell id="WIyWlLk6GJQsqaUBKTNV-1" parent="WIyWlLk6GJQsqaUBKTNV-0" />
        <mxCell id="GiRGNkasNzmHQwFK5APj-1" value="&lt;font style=&quot;font-size: 20px&quot;&gt;搜索或命名&lt;/font&gt;" style="rounded=1;whiteSpace=wrap;html=1;align=left;spacingTop=0;spacingLeft=40;" vertex="1" parent="WIyWlLk6GJQsqaUBKTNV-1">
          <mxGeometry x="100" y="160" width="260" height="40" as="geometry" />
        </mxCell>
        <mxCell id="GiRGNkasNzmHQwFK5APj-3" value="&lt;font color=&quot;#000000&quot; style=&quot;font-size: 20px&quot;&gt;打开&lt;/font&gt;" style="rounded=1;whiteSpace=wrap;html=1;fontColor=#FFD736;" vertex="1" parent="WIyWlLk6GJQsqaUBKTNV-1">
          <mxGeometry x="374" y="160" width="80" height="40" as="geometry" />
        </mxCell>
        <mxCell id="GiRGNkasNzmHQwFK5APj-4" value="&lt;font color=&quot;#000000&quot;&gt;&lt;span style=&quot;font-size: 20px&quot;&gt;添加&lt;/span&gt;&lt;/font&gt;" style="rounded=1;whiteSpace=wrap;html=1;fontColor=#FFD736;" vertex="1" parent="WIyWlLk6GJQsqaUBKTNV-1">
          <mxGeometry x="460" y="160" width="80" height="40" as="geometry" />
        </mxCell>
        <mxCell id="GiRGNkasNzmHQwFK5APj-9" value="" style="html=1;shadow=0;dashed=0;shape=mxgraph.bootstrap.rrect;rSize=5;strokeColor=#DFDFDF;html=1;whiteSpace=wrap;fillColor=#FFFFFF;fontColor=#000000;" vertex="1" parent="WIyWlLk6GJQsqaUBKTNV-1">
          <mxGeometry x="100" y="220" width="440" height="190" as="geometry" />
        </mxCell>
        <mxCell id="GiRGNkasNzmHQwFK5APj-10" value="&lt;font style=&quot;font-size: 20px&quot;&gt;分组名&lt;/font&gt;" style="strokeColor=inherit;fillColor=inherit;gradientColor=inherit;fontColor=inherit;html=1;shadow=0;dashed=0;shape=mxgraph.bootstrap.topButton;rSize=5;perimeter=none;whiteSpace=wrap;resizeWidth=1;align=left;spacing=10;" vertex="1" parent="GiRGNkasNzmHQwFK5APj-9">
          <mxGeometry width="440" height="50" relative="1" as="geometry" />
        </mxCell>
        <mxCell id="GiRGNkasNzmHQwFK5APj-12" value="Vestibulum at eros" style="strokeColor=inherit;fillColor=inherit;gradientColor=inherit;fontColor=inherit;html=1;shadow=0;dashed=0;shape=mxgraph.bootstrap.bottomButton;rSize=5;perimeter=none;whiteSpace=wrap;resizeWidth=1;resizeHeight=0;align=left;spacing=10;" vertex="1" parent="GiRGNkasNzmHQwFK5APj-9">
          <mxGeometry y="1" width="440" height="30" relative="1" as="geometry">
            <mxPoint y="-30" as="offset" />
          </mxGeometry>
        </mxCell>
        <mxCell id="GiRGNkasNzmHQwFK5APj-16" value="" style="html=1;verticalLabelPosition=bottom;align=center;labelBackgroundColor=#ffffff;verticalAlign=top;strokeWidth=2;strokeColor=#0080F0;shadow=0;dashed=0;shape=mxgraph.ios7.icons.looking_glass;fontColor=#FFD736;" vertex="1" parent="WIyWlLk6GJQsqaUBKTNV-1">
          <mxGeometry x="110" y="170" width="20" height="20" as="geometry" />
        </mxCell>
        <mxCell id="GiRGNkasNzmHQwFK5APj-18" value="" style="shape=cross;whiteSpace=wrap;html=1;fontColor=#FFD736;" vertex="1" parent="WIyWlLk6GJQsqaUBKTNV-1">
          <mxGeometry x="290" y="230" width="80" height="80" as="geometry" />
        </mxCell>
      </root>
    </mxGraphModel>
  </diagram>
</mxfile>
